<svg aria-hidden="true" style="position: absolute; width: 0; height: 0; overflow: hidden;" version="1.1" xmlns="http://www.w3.org/2000/svg" xmlns:xlink="http://www.w3.org/1999/xlink">
    <defs>
        <symbol id="star-outline" viewBox="0 0 32 32">
            <path stroke-linejoin="miter" stroke-linecap="butt" stroke-miterlimit="4" stroke-width="1.3333" d="M15.375 5.076c0.229-0.545 1.021-0.545 1.25 0l2.704 6.424c0.291 0.691 0.947 1.16 1.694 1.219l7.021 0.556c0.61 0.048 0.828 0.78 0.388 1.154l-5.35 4.527c-0.573 0.485-0.826 1.25-0.65 1.98l1.635 6.768c0.133 0.549-0.482 1.031-1.013 0.711h-0.001l-6.009-3.626c-0.641-0.387-1.447-0.387-2.089 0l-6.010 3.626c-0.531 0.32-1.146-0.162-1.013-0.711l1.635-6.768c0.176-0.73-0.077-1.495-0.65-1.98l-5.35-4.527c-0.44-0.373-0.222-1.105 0.388-1.154l7.021-0.556c0.747-0.059 1.403-0.527 1.694-1.219l2.704-6.424z"></path>
        </symbol>
        <symbol id="star-filled" viewBox="0 0 32 32">
            <path d="M14.761 4.816c0.458-1.089 2.019-1.089 2.478 0l2.705 6.425c0.193 0.459 0.63 0.772 1.132 0.812l7.021 0.556c1.19 0.094 1.672 1.561 0.766 2.328l-5.349 4.527c-0.382 0.323-0.549 0.831-0.432 1.314l1.634 6.769c0.277 1.147-0.986 2.053-2.004 1.439l-6.011-3.627c-0.429-0.259-0.969-0.259-1.399 0l-6.011 3.627c-1.018 0.615-2.281-0.292-2.004-1.439l1.634-6.769c0.117-0.483-0.050-0.991-0.432-1.314l-5.35-4.527c-0.906-0.767-0.424-2.234 0.766-2.328l7.021-0.556c0.502-0.040 0.938-0.353 1.132-0.812l2.705-6.425z"></path>
        </symbol>
    </defs>
</svg>