<svg xmlns="http://www.w3.org/2000/svg" style="display: none;">
  <!-- Location Section Icons -->
  <!-- Email icon -->
  <symbol id="email" viewBox="0 0 27 22">
    <path d="M24 0H2.667A2.67 2.67 0 0 0 0 2.667v16a2.67 2.67 0 0 0 2.667 2.666H24a2.67 2.67 0 0 0 2.667-2.666v-16A2.67 2.67 0 0 0 24 0Zm0 2.667v.681l-10.667 8.297L2.667 3.35v-.682H24Zm-21.333 16V6.725l9.848 7.66a1.325 1.325 0 0 0 1.637 0L24 6.725l.003 11.942H2.667Z"/>
  </symbol>

  <!-- Phone icon -->
  <symbol id="phone" viewBox="0 0 26 26">
    <path d="M19.616 13.724a1.332 1.332 0 0 0-1.885 0l-2.125 2.126c-.986-.294-2.824-.96-3.99-2.126-1.165-1.165-1.832-3.004-2.125-3.99l2.125-2.124a1.333 1.333 0 0 0 0-1.886L6.283.391a1.332 1.332 0 0 0-1.885 0L.782 4.007A2.665 2.665 0 0 0 0 5.92c.031 1.899.534 8.494 5.731 13.69 5.197 5.198 11.792 5.7 13.692 5.732h.037c.704 0 1.37-.278 1.874-.782l3.616-3.616a1.331 1.331 0 0 0 0-1.885l-5.334-5.335Zm-.169 8.95c-1.664-.028-7.357-.475-11.83-4.95-4.489-4.488-4.923-10.201-4.95-11.832L5.34 3.22l3.448 3.448L7.064 8.39a1.333 1.333 0 0 0-.362 1.216c.032.153.814 3.79 3.028 6.003 2.213 2.213 5.849 2.996 6.002 3.028a1.322 1.322 0 0 0 1.216-.362l1.726-1.724L22.122 20l-2.675 2.674Z"/>
  </symbol>

  <!-- Location icon -->
  <symbol id="location" viewBox="0 0 22 27">
    <path d="M10.667 16A5.339 5.339 0 0 0 16 10.667a5.339 5.339 0 0 0-5.333-5.334 5.339 5.339 0 0 0-5.334 5.334A5.339 5.339 0 0 0 10.667 16Zm0-8a2.67 2.67 0 0 1 2.666 2.667 2.67 2.67 0 0 1-2.666 2.666A2.67 2.67 0 0 1 8 10.667 2.67 2.67 0 0 1 10.667 8Z"/>
    <path d="M9.893 26.419a1.331 1.331 0 0 0 1.547 0c.405-.287 9.932-7.166 9.893-15.752C21.333 4.785 16.548 0 10.667 0 4.785 0 0 4.785 0 10.66c-.039 8.593 9.488 15.472 9.893 15.759Zm.774-23.752c4.412 0 8 3.588 8 8.006.028 5.918-5.85 11.231-8 12.974-2.148-1.744-8.028-7.059-8-12.98 0-4.412 3.588-8 8-8Z"/>
  </symbol>

  <!-- Arrow right icon for "Get Directions" -->
  <symbol id="arrow-right" viewBox="0 0 8 12">
    <path d="m1.414 11.414 5.707-5.707L1.414 0 0 1.414l4.293 4.293L0 10l1.414 1.414Z"/>
  </symbol>
</svg>